<svg xmlns="http://www.w3.org/2000/svg" viewBox="0 0 380 300" role="img" aria-labelledby="helmet-title">
  <title id="helmet-title">Decorative safety helmet illustration</title>
  <defs>
    <pattern id="helmet-grid" width="24" height="24" patternUnits="userSpaceOnUse">
      <path d="M24 0H0v24" fill="none" stroke="#adc3c5" stroke-opacity=".09"/>
    </pattern>
    <linearGradient id="helmet-fill" x1="0" y1="0" x2=".8" y2="1">
      <stop stop-color="#ffdf8c"/><stop offset="1" stop-color="#e7a839"/>
    </linearGradient>
  </defs>
  <rect x="15" y="10" width="350" height="280" rx="20" fill="url(#helmet-grid)"/>
  <circle cx="190" cy="144" r="113" fill="none" stroke="#d1c493" stroke-opacity=".13"/>
  <circle cx="190" cy="144" r="91" fill="none" stroke="#d1c493" stroke-opacity=".2" stroke-dasharray="3 7"/>
  <path d="M35 57V30h27M318 30h27v27M35 235v27h27M318 262h27v-27" fill="none" stroke="#b5c2ad" stroke-opacity=".35" stroke-width="1.5"/>
  <ellipse cx="192" cy="227" rx="102" ry="12" fill="#061e28" opacity=".5"/>
  <path d="M94 180c1-56 34-92 76-99h40c44 7 76 44 77 99z" fill="url(#helmet-fill)"/>
  <path d="M167 163V82c0-8 5-13 12-13h25c7 0 12 5 12 13v81" fill="#ffda7b" stroke="#e8b34e" stroke-width="2"/>
  <path d="M117 166c2-25 13-45 30-57M265 166c-2-25-13-45-30-57" fill="none" stroke="#b87822" stroke-opacity=".5" stroke-width="7" stroke-linecap="round"/>
  <path d="M87 177h210c8 0 13 6 13 13v7c0 9-9 15-18 15H93c-11 0-19-6-19-15v-6c0-8 5-14 13-14z" fill="#ffd16b"/>
  <path d="M86 199h211" stroke="#b67924" stroke-width="3" stroke-opacity=".4" stroke-linecap="round"/>
  <path d="M178 84v65" stroke="#ffedb2" stroke-width="4" stroke-linecap="round"/>
  <circle cx="79" cy="82" r="4" fill="#d3b568"/>
  <path d="M65 82H50M79 68V53" stroke="#d3b568" stroke-opacity=".5"/>
  <text x="190" y="272" text-anchor="middle" fill="#a5b8b6" font-family="sans-serif" font-size="8" letter-spacing="3">DESIGNED AROUND SAFETY</text>
</svg>
